<svg xmlns="http://www.w3.org/2000/svg" width="580" height="387" viewBox="0 0 580 387">
<g>
<path d="M 297.21 340.20 C292.65,343.39 288.58,346.00 288.16,346.00 C285.43,346.00 234.49,308.29 212.38,289.91 C153.67,241.09 119.29,200.47 106.23,164.50 C100.71,149.27 99.50,142.64 99.50,127.50 C99.50,111.45 101.04,103.70 106.96,90.00 C111.76,78.88 116.22,72.10 124.84,62.88 C139.49,47.19 159.65,36.62 180.22,33.85 C191.30,32.36 210.40,33.37 220.50,35.98 C246.86,42.81 269.64,62.07 283.05,88.86 C285.29,93.34 287.31,97.00 287.55,97.00 C287.78,97.00 289.28,94.41 290.89,91.25 C301.61,70.09 323.10,49.18 343.73,39.82 C355.92,34.29 363.90,32.75 380.50,32.69 C398.62,32.63 407.17,34.52 422.66,42.02 C452.16,56.32 471.37,83.79 475.16,117.10 C478.08,142.77 468.54,172.83 448.28,201.79 C419.26,243.27 366.17,291.92 297.21,340.20 Z" fill="rgb(1,1,1)"/>
<path d="M 278.00 369.00 C278.00,370.10 277.55,371.00 277.00,371.00 C276.45,371.00 276.00,368.52 276.00,365.50 C276.00,362.48 276.45,360.00 277.00,360.00 C277.55,360.00 278.00,361.32 278.00,362.93 C278.00,364.87 278.59,366.01 279.75,366.31 C281.42,366.75 281.42,366.77 279.75,366.88 C278.71,366.95 278.00,367.81 278.00,369.00 ZM 319.00 369.00 C319.00,370.10 318.55,371.00 318.00,371.00 C317.45,371.00 317.00,368.52 317.00,365.50 C317.00,362.48 317.45,360.00 318.00,360.00 C318.55,360.00 319.00,361.31 319.00,362.92 C319.00,364.52 319.56,366.06 320.25,366.34 C321.25,366.74 321.25,366.86 320.25,366.92 C319.56,366.96 319.00,367.90 319.00,369.00 Z" fill="rgb(158,156,156)"/>
<path d="M 0.00 193.50 L 0.00 0.00 L 290.00 0.00 L 580.00 0.00 L 580.00 193.50 L 580.00 387.00 L 290.00 387.00 L 0.00 387.00 L 0.00 193.50 ZM 278.00 369.00 C278.00,367.81 278.71,366.95 279.75,366.88 C281.42,366.77 281.42,366.75 279.75,366.31 C278.59,366.01 278.00,364.87 278.00,362.93 C278.00,361.32 277.55,360.00 277.00,360.00 C276.45,360.00 276.00,362.48 276.00,365.50 C276.00,368.52 276.45,371.00 277.00,371.00 C277.55,371.00 278.00,370.10 278.00,369.00 ZM 319.00 369.00 C319.00,367.90 319.56,366.96 320.25,366.92 C321.25,366.86 321.25,366.74 320.25,366.34 C319.56,366.06 319.00,364.52 319.00,362.92 C319.00,361.31 318.55,360.00 318.00,360.00 C317.45,360.00 317.00,362.48 317.00,365.50 C317.00,368.52 317.45,371.00 318.00,371.00 C318.55,371.00 319.00,370.10 319.00,369.00 ZM 297.21 340.20 C366.17,291.92 419.26,243.27 448.28,201.79 C468.54,172.83 478.08,142.77 475.16,117.10 C471.37,83.79 452.16,56.32 422.66,42.02 C407.17,34.52 398.62,32.63 380.50,32.69 C363.90,32.75 355.92,34.29 343.73,39.82 C323.10,49.18 301.61,70.09 290.89,91.25 C289.28,94.41 287.78,97.00 287.55,97.00 C287.31,97.00 285.29,93.34 283.05,88.86 C269.64,62.07 246.86,42.81 220.50,35.98 C210.40,33.37 191.30,32.36 180.22,33.85 C159.65,36.62 139.49,47.19 124.84,62.88 C116.22,72.10 111.76,78.88 106.96,90.00 C101.04,103.70 99.50,111.45 99.50,127.50 C99.50,142.64 100.71,149.27 106.23,164.50 C119.29,200.47 153.67,241.09 212.38,289.91 C234.49,308.29 285.43,346.00 288.16,346.00 C288.58,346.00 292.65,343.39 297.21,340.20 Z" fill="rgb(244,242,240)"/>
</g>
</svg>